<?xml version="1.0" standalone="no"?><svg xmlns="http://www.w3.org/2000/svg" viewBox="0 0 1440 320"><path fill="#1f2937" fill-opacity="1" d="M0,96L0,192L36.9,192L36.9,0L73.8,0L73.8,288L110.8,288L110.8,192L147.7,192L147.7,224L184.6,224L184.6,256L221.5,256L221.5,32L258.5,32L258.5,96L295.4,96L295.4,160L332.3,160L332.3,0L369.2,0L369.2,224L406.2,224L406.2,128L443.1,128L443.1,256L480,256L480,96L516.9,96L516.9,96L553.8,96L553.8,320L590.8,320L590.8,192L627.7,192L627.7,288L664.6,288L664.6,96L701.5,96L701.5,160L738.5,160L738.5,288L775.4,288L775.4,224L812.3,224L812.3,256L849.2,256L849.2,288L886.2,288L886.2,128L923.1,128L923.1,32L960,32L960,64L996.9,64L996.9,224L1033.8,224L1033.8,64L1070.8,64L1070.8,160L1107.7,160L1107.7,288L1144.6,288L1144.6,64L1181.5,64L1181.5,192L1218.5,192L1218.5,128L1255.4,128L1255.4,64L1292.3,64L1292.3,64L1329.2,64L1329.2,224L1366.2,224L1366.2,160L1403.1,160L1403.1,320L1440,320L1440,320L1403.1,320L1403.1,320L1366.2,320L1366.2,320L1329.2,320L1329.2,320L1292.3,320L1292.3,320L1255.4,320L1255.4,320L1218.5,320L1218.5,320L1181.5,320L1181.5,320L1144.6,320L1144.6,320L1107.7,320L1107.7,320L1070.8,320L1070.8,320L1033.8,320L1033.8,320L996.9,320L996.9,320L960,320L960,320L923.1,320L923.1,320L886.2,320L886.2,320L849.2,320L849.2,320L812.3,320L812.3,320L775.4,320L775.4,320L738.5,320L738.5,320L701.5,320L701.5,320L664.6,320L664.6,320L627.7,320L627.7,320L590.8,320L590.8,320L553.8,320L553.8,320L516.9,320L516.9,320L480,320L480,320L443.1,320L443.1,320L406.2,320L406.2,320L369.2,320L369.2,320L332.3,320L332.3,320L295.4,320L295.4,320L258.5,320L258.5,320L221.5,320L221.5,320L184.6,320L184.6,320L147.7,320L147.7,320L110.8,320L110.8,320L73.8,320L73.8,320L36.9,320L36.9,320L0,320L0,320Z"></path></svg>